Coordinates
version=1
nRows=22
nColumns=24
inDegrees=yes

Units are S.I. units (second, meters, Newtons, ...)
Angles are in degrees.

endheader
time	pelvis_tilt	pelvis_list	pelvis_rotation	pelvis_tx	pelvis_ty	pelvis_tz	hip_flexion_r	hip_adduction_r	hip_rotation_r	knee_angle_r	ankle_angle_r	subtalar_angle_r	mtp_angle_r	hip_flexion_l	hip_adduction_l	hip_rotation_l	knee_angle_l	ankle_angle_l	subtalar_angle_l	mtp_angle_l	lumbar_extension	lumbar_bending	lumbar_rotation
      5.63000000	     -5.26722773	     -5.21194546	     -6.45422211	      1.38156901	      0.66522809	     -0.22008957	      2.79520587	     13.86477017	      3.14361853	    -11.25808186	     19.25259933	    -11.94591355	      0.00000000	     36.36671192	     -7.65628623	     10.63897626	    -31.56049362	     -2.24764780	    -38.33666923	      0.00000000	    -12.40283244	      5.07635087	     10.69189114
      5.64000000	     -5.04585694	     -5.80083397	     -7.39003351	      1.39250218	      0.66442198	     -0.21935288	      0.90760221	     14.32512646	      3.52905837	    -10.46861365	     19.82837785	    -11.19325911	      0.00000000	     35.35019064	     -8.95421879	     10.78249302	    -26.36695159	     -2.37456728	    -36.87020780	      0.00000000	    -12.33995943	      5.74639828	     11.96497758
      5.65000000	     -4.81420288	     -6.35878609	     -8.24709142	      1.40362234	      0.66344728	     -0.21859991	     -1.04248363	     14.69416698	      3.66580106	     -9.61479998	     20.47561030	    -10.19946152	      0.00000000	     34.30169112	    -10.27424128	     10.37091714	    -21.24360772	     -2.11467352	    -34.30336542	      0.00000000	    -12.27817851	      6.36587096	     13.06481369
      5.66000000	     -4.80787004	     -6.94042175	     -9.16936149	      1.41477577	      0.66209575	     -0.21777165	     -2.76139648	     15.08301268	      3.90587279	     -8.83822414	     21.07548407	     -9.26019405	      0.00000000	     33.51069087	    -11.66713531	      9.45771227	    -16.35590622	     -1.38093651	    -30.96559362	      0.00000000	    -11.99580567	      7.03053037	     14.30697782
      5.67000000	     -4.77778500	     -7.32254917	    -10.06132612	      1.42603097	      0.66066993	     -0.21694520	     -4.49877916	     15.21870268	      4.28780835	     -8.06815482	     21.65472237	     -8.49465601	      0.00000000	     32.71622681	    -12.81538255	      7.81405217	    -11.71646131	     -0.69664205	    -27.08695648	      0.00000000	    -11.73897481	      7.44791405	     15.37328783
      5.68000000	     -4.95972637	     -7.60927796	    -10.96561698	      1.43724216	      0.65899728	     -0.21616611	     -5.93448008	     15.24143842	      4.68124827	     -7.42627090	     22.14573070	     -7.72279629	      0.00000000	     32.27714032	    -13.79344687	      5.53724624	     -7.60753762	      0.58606328	    -22.13243130	      0.00000000	    -11.28430131	      7.80475607	     16.48467512
      5.69000000	     -5.23703491	     -7.70879075	    -11.83509590	      1.44841657	      0.65722694	     -0.21548989	     -7.16076201	     15.04563134	      5.11222845	     -6.90457131	     22.58898861	     -7.01459340	      0.00000000	     32.02076487	    -14.43995682	      3.01986800	     -3.95082765	      1.90446995	    -16.98957394	      0.00000000	    -10.74558750	      7.96580090	     17.54018508
      5.70000000	     -5.48734244	     -7.61332194	    -12.58850535	      1.45957719	      0.65547759	     -0.21501130	     -8.30982405	     14.60796715	      5.57623403	     -6.44465045	     23.00790939	     -6.35911977	      0.00000000	     31.80256991	    -14.69681175	      0.70435157	     -0.68586163	      2.98000792	    -12.28247663	      0.00000000	    -10.24662365	      7.92563970	     18.38035473
      5.71000000	     -5.91075708	     -7.45581513	    -13.29971590	      1.47062806	      0.65357450	     -0.21465634	     -9.15136822	     14.12124495	      6.05691887	     -6.13978642	     23.30046705	     -5.79473062	      0.00000000	     31.83972586	    -14.80124386	     -1.03988828	      2.14497697	      3.86951188	     -8.38388172	      0.00000000	     -9.60391261	      7.86780223	     19.23567757
      5.72000000	     -6.32358170	     -7.25755005	    -13.90578935	      1.48164506	      0.65167638	     -0.21446592	     -9.91774360	     13.57680542	      6.55859803	     -5.91580799	     23.48813632	     -5.31697966	      0.00000000	     31.93012267	    -14.76945002	     -2.13998890	      4.55458547	      4.47483650	     -5.57192976	      0.00000000	     -9.01874264	      7.78214778	     20.01270575
      5.73000000	     -6.68977881	     -7.00912253	    -14.42135303	      1.49267520	      0.64981188	     -0.21439195	    -10.64433927	     12.96704239	      7.07769712	     -5.78650162	     23.62854632	     -4.95349642	      0.00000000	     32.05879407	    -14.62762669	     -2.77190606	      6.46549951	      4.81936145	     -3.94280664	      0.00000000	     -8.51628133	      7.61569017	     20.76530452
      5.74000000	     -7.05617196	     -6.84378591	    -14.89064378	      1.50369230	      0.64797815	     -0.21444967	    -11.29598968	     12.43439484	      7.59028751	     -5.80192151	     23.60116294	     -4.58345587	      0.00000000	     32.30861873	    -14.52775872	     -3.19995825	      7.77287658	      4.83595397	     -3.29187521	      0.00000000	     -8.09687731	      7.57368662	     21.43153574
      5.75000000	     -7.24180813	     -6.60927157	    -15.23714191	      1.51485530	      0.64632878	     -0.21468351	    -12.08330825	     11.78660300	      8.04284531	     -5.83003191	     23.52063789	     -4.27677372	      0.00000000	     32.62105272	    -14.22835695	     -4.14981858	      8.23812790	      5.07669515	     -2.45303356	      0.00000000	     -7.88486275	      7.39832851	     22.04284754
      5.76000000	     -7.44357476	     -6.42668672	    -15.58704683	      1.52610309	      0.64466825	     -0.21502297	    -12.75773622	     11.18808205	      8.35823781	     -6.04424221	     23.28233344	     -3.97325219	      0.00000000	     33.07055105	    -13.96739599	     -4.98509659	      8.01740990	      5.04010592	     -2.78058510	      0.00000000	     -7.71723649	      7.27808239	     22.80553859
      5.77000000	     -7.52210960	     -6.26990763	    -15.95948091	      1.53755842	      0.64311563	     -0.21541853	    -13.51081274	     10.56804509	      8.68594879	     -6.37376597	     22.97592236	     -3.66612779	      0.00000000	     33.45916138	    -13.70787300	     -6.11041984	      7.18191558	      5.02563781	     -3.44566459	      0.00000000	     -7.71789947	      7.14960096	     23.56885584
      5.78000000	     -7.50577809	     -6.15605905	    -16.38007679	      1.54927542	      0.64162005	     -0.21582426	    -14.34539734	      9.94173247	      8.98392078	     -6.76695822	     22.63297844	     -3.40792959	      0.00000000	     33.75092481	    -13.50539894	     -7.45220799	      5.84755972	      4.99352598	     -4.40705031	      0.00000000	     -7.84375002	      7.03817375	     24.41104671
      5.79000000	     -7.40300713	     -6.08328967	    -16.84489574	      1.56127235	      0.64014875	     -0.21622185	    -15.23532924	      9.31347335	      9.29990203	     -7.27389467	     22.17369769	     -3.19096795	      0.00000000	     33.88329489	    -13.37206738	     -8.83784993	      4.17518276	      4.92449735	     -5.69657820	      0.00000000	     -8.07813392	      6.94021572	     25.25383849
      5.80000000	     -7.35033157	     -6.02312343	    -17.36425841	      1.57358056	      0.63857460	     -0.21657334	    -16.07053331	      8.68115367	      9.51385253	     -7.79954276	     21.53518562	     -2.95084930	      0.00000000	     33.96777782	    -13.32598802	    -10.07208930	      2.27404420	      4.77820638	     -7.19783873	      0.00000000	     -8.22251872	      6.86449141	     26.16877176
      5.81000000	     -7.18520642	     -5.97193046	    -17.84312902	      1.58618475	      0.63700956	     -0.21695632	    -17.02119514	      8.02225416	      9.80482183	     -8.34270586	     20.68454147	     -2.91269955	      0.00000000	     33.72727448	    -13.23875485	    -10.48969209	      0.48535537	      3.88988054	     -9.96559962	      0.00000000	     -8.47334110	      6.77177194	     26.85205550
      5.82000000	     -7.23762854	     -5.81477887	    -18.31619936	      1.59893741	      0.63525306	     -0.21735384	    -17.63471473	      7.32437479	      9.90848333	     -9.01448012	     19.80613478	     -2.73470761	      0.00000000	     33.70070487	    -13.10865429	    -10.60148852	     -1.35109238	      2.41388596	    -12.75786158	      0.00000000	     -8.41756762	      6.63982736	     27.46702084
      5.83000000	     -7.34134446	     -5.49124921	    -18.63685205	      1.61177432	      0.63349112	     -0.21788900	    -18.07110999	      6.52264920	      9.82789984	     -9.75858121	     18.78526076	     -2.56140451	      0.00000000	     33.77803321	    -12.75106042	    -10.08042827	     -3.10955585	      0.00044933	    -15.87984133	      0.00000000	     -8.23726814	      6.34548651	     27.81482111
      5.84000000	     -7.51698836	     -4.93473864	    -18.72578656	      1.62455825	      0.63178671	     -0.21863602	    -18.25651666	      5.60021306	      9.56493407	    -10.60732897	     17.61129126	     -2.42819900	      0.00000000	     34.11689563	    -12.06801664	     -8.85314632	     -4.85101956	     -3.37219373	    -19.24484511	      0.00000000	     -7.91463762	      5.81245377	     27.80982273
